<svg id="Layer_1" data-name="Layer 1" xmlns="http://www.w3.org/2000/svg" viewBox="0 0 749.64 26.02"><defs><style>.cls-1{fill:#dbdbdb;stroke:#8a8a8a;stroke-miterlimit:10;}.cls-2{fill:#707070;}</style></defs><title>cryptocornya-home-page-drop-down</title><path class="cls-1" d="M317.27,135.77" transform="translate(-0.18 0.51)"/><path class="cls-1" d="M749.79,0c-21.6,1.29-37.2,6.27-47.49,10.6-8,3.36-13.18,6.52-23.24,9.57A113.53,113.53,0,0,1,644.43,25H105.58a113.87,113.87,0,0,1-34.64-4.83C60.88,17.11,55.67,14,47.7,10.6,37.41,6.26,21.81,1.29.21,0H749.79Z" transform="translate(-0.18 0.51)"/><path class="cls-2" d="M264.67,13.53H485a0,0,0,0,1,0,0v0a6.09,6.09,0,0,1-6.09,6.09H270.76a6.09,6.09,0,0,1-6.09-6.09v0A0,0,0,0,1,264.67,13.53Z"/></svg>